<?xml version="1.0" encoding="UTF-8" standalone="no"?>
<!-- Created with Inkscape (http://www.inkscape.org/) -->

<svg
   xmlns:dc="http://purl.org/dc/elements/1.1/"
   xmlns:cc="http://creativecommons.org/ns#"
   xmlns:rdf="http://www.w3.org/1999/02/22-rdf-syntax-ns#"
   xmlns:svg="http://www.w3.org/2000/svg"
   xmlns="http://www.w3.org/2000/svg"
   xmlns:sodipodi="http://sodipodi.sourceforge.net/DTD/sodipodi-0.dtd"
   xmlns:inkscape="http://www.inkscape.org/namespaces/inkscape"
   width="2473.3665mm"
   height="2490.1138mm"
   viewBox="0 0 2473.3664 2490.1137"
   version="1.1"
   id="svg8"
   inkscape:version="0.92.3 (2405546, 2018-03-11)"
   sodipodi:docname="cyclone.svg"
   inkscape:export-filename="/home/eric/data/WORK/PROJECT/TOOL/CYCLONE/LOGO/cyclone.png"
   inkscape:export-xdpi="49"
   inkscape:export-ydpi="49">
  <defs
     id="defs2" />
  <sodipodi:namedview
     id="base"
     pagecolor="#ffffff"
     bordercolor="#666666"
     borderopacity="1.0"
     inkscape:pageopacity="0.0"
     inkscape:pageshadow="2"
     inkscape:zoom="0.12374369"
     inkscape:cx="8363.8846"
     inkscape:cy="5074.8604"
     inkscape:document-units="mm"
     inkscape:current-layer="layer1"
     showgrid="false"
     inkscape:window-width="3840"
     inkscape:window-height="2136"
     inkscape:window-x="0"
     inkscape:window-y="0"
     inkscape:window-maximized="1"
     fit-margin-top="100"
     fit-margin-left="80"
     fit-margin-right="80"
     fit-margin-bottom="100" />
  <metadata
     id="metadata5">
    <rdf:RDF>
      <cc:Work
         rdf:about="">
        <dc:format>image/svg+xml</dc:format>
        <dc:type
           rdf:resource="http://purl.org/dc/dcmitype/StillImage" />
        <dc:title></dc:title>
      </cc:Work>
    </rdf:RDF>
  </metadata>
  <g
     inkscape:label="Calque 1"
     inkscape:groupmode="layer"
     id="layer1"
     transform="translate(306.86934,2180.0354)">
    <flowRoot
       xml:space="preserve"
       id="flowRoot901"
       style="font-style:normal;font-weight:normal;font-size:40px;line-height:342.5;font-family:sans-serif;letter-spacing:26.14008331px;word-spacing:0px;fill:#000000;fill-opacity:1;stroke:none"
       transform="scale(0.26458333)"><flowRegion
         id="flowRegion903"
         style="letter-spacing:26.14008331px"><rect
           id="rect905"
           width="592.85712"
           height="221.42857"
           x="64.285713"
           y="559.66254"
           style="letter-spacing:26.14008331px" /></flowRegion><flowPara
         id="flowPara907">Nutschell</flowPara></flowRoot>    <text
       xml:space="preserve"
       style="font-style:normal;font-weight:normal;font-size:149.40100098px;line-height:342.5;font-family:sans-serif;letter-spacing:18.07752228px;word-spacing:0px;fill:#04dbff;fill-opacity:1;stroke:#00404f;stroke-width:21.9109993;stroke-miterlimit:4;stroke-dasharray:none;stroke-opacity:1"
       x="-219.59821"
       y="84.907608"
       id="text930"><tspan
         sodipodi:role="line"
         id="tspan928"
         x="-219.59821"
         y="84.907608"
         style="font-style:normal;font-variant:normal;font-weight:bold;font-stretch:normal;font-size:498.00338745px;font-family:Birdman;-inkscape-font-specification:'Birdman Bold';letter-spacing:0px;fill:#04dbff;fill-opacity:1;stroke:#00404f;stroke-width:21.9109993;stroke-miterlimit:4;stroke-dasharray:none;stroke-opacity:1"><tspan
   style="letter-spacing:19.06615639px;fill:#04dbff;fill-opacity:1;stroke:#00404f;stroke-width:21.9109993;stroke-miterlimit:4;stroke-dasharray:none;stroke-opacity:1"
   id="tspan839">C</tspan>yclone</tspan></text>
    <g
       id="g922"
       transform="translate(1.4586328)">
      <path
         id="path828"
         d="m 1490.5229,-1251.4284 c -0.6351,2.3472 -1.4912,4.6117 -2.154,6.959 19.1856,-69.0585 24.9503,-141.158 16.9833,-212.3876 -17.2629,-163.716 -95.9866,-314.7912 -220.2855,-422.7317 -101.4751,-88.5098 -224.8592,-148.1445 -357.2563,-172.6771 v 238.5667 c 2.12636,0.5523 4.16988,1.3531 6.26862,1.9331 -68.68215,-18.8819 -140.33293,-24.505 -211.11729,-16.5691 -163.7091,17.2491 -314.78085,95.9521 -422.73166,220.2303 -88.46836,101.4888 -148.06516,224.8696 -172.56664,357.2563 l 239.06376,-0.5799 c 2.22646,-8.3018 4.6773,-16.5863 7.34561,-24.8536 -19.53422,61.5505 -28.27094,126.0145 -25.8201,190.544 7.31109,178.16909 87.72621,345.4509 222.3014,462.44219 101.22653,88.88949 224.71772,148.58984 357.2563,172.70471 v -239.36752 c -8.0636,-2.19195 -16.08924,-4.57375 -24.08035,-7.1523 61.55056,19.53421 126.01455,28.26748 190.54405,25.8201 178.1691,-7.3111 345.4509,-87.72621 462.4421,-222.3014 88.8619,-101.23689 148.5278,-224.72458 172.6219,-357.25628 z m -491.74174,-537.5552 c 4.08704,1.7674 8.28454,3.5347 12.23344,5.3849 -4.0697,-1.8433 -8.1464,-3.6383 -12.23344,-5.3849 z m 36.50714,17.4803 c 3.2862,1.7398 6.6276,3.3691 9.8862,5.1917 -3.2586,-1.8226 -6.6,-3.4519 -9.8862,-5.1917 z m 42.4444,24.8536 c 1.436,0.9665 2.7615,2.0711 4.2527,3.0377 -1.436,-0.8285 -2.8167,-1.9331 -4.3632,-2.8996 z m 31.0393,22.672 c 3.3138,2.6234 6.5448,5.3849 9.8034,8.1188 -3.2586,-2.5958 -6.4896,-5.3573 -9.8034,-7.9807 z m 67.298,64.3707 c -2.7615,-3.1757 -5.523,-6.1581 -8.2845,-9.251 2.6786,3.2033 5.5506,6.2134 8.2845,9.3891 z m -27.4218,-29.1062 c -3.3138,-3.2862 -6.6828,-6.462 -10.0795,-9.6101 3.3967,3.2862 6.7657,6.4619 10.0795,9.7481 z m -173.75409,-109.7976 c -4.00418,-1.4912 -8.00837,-3.0101 -12.06779,-4.4184 4.05942,1.4083 8.06361,2.9272 12.06779,4.4184 z m 361.48139,794.8172 c 3.1758,-2.7615 6.1858,-5.523 9.3063,-8.4778 -3.1205,2.8168 -6.1305,5.7163 -9.3063,8.4778 z m 29.0787,-27.3941 c 3.2758,-3.3138 6.4895,-6.6829 9.6377,-10.1071 -3.1654,3.4415 -6.3791,6.8105 -9.6377,10.1071 z m 114.3264,-185.6562 c -1.4083,4.1423 -2.9548,8.2845 -4.4736,12.2887 1.5188,-4.087 3.0653,-8.1741 4.4736,-12.2887 z m -13.8075,35.8996 c -1.7674,4.087 -3.5347,8.2845 -5.523,12.2335 1.8502,-3.949 3.6176,-8.0636 5.3849,-12.1506 z m -17.5632,36.5624 c -1.7121,3.2586 -3.3138,6.5447 -5.1088,9.7481 1.6017,-3.1205 3.2586,-6.4343 4.9707,-9.6653 z m -24.8536,42.2234 c -1.1322,1.6846 -2.3749,3.2586 -3.5347,4.9155 0.9941,-1.574 2.2368,-3.1481 3.369,-4.8326 z m -22.8376,31.0946 c -2.7615,3.3691 -5.5231,6.6 -8.2846,9.9138 2.7615,-3.2862 5.5231,-6.5447 8.2846,-9.9138 z"
         style="fill:#75e6ff;stroke-width:3.45188498"
         inkscape:connector-curvature="0" />
      <g
         transform="matrix(3.4518851,0,0,3.4518851,99.82398,-2080.0362)"
         id="g834">
        <path
           id="path830"
           d="m 239.865,77.157 c 31.833,8.231 59.825,27.251 79.2,53.816 24.152,32.8 31.624,75.32 12.648,111.544 -7.181,14.268 -18.652,25.929 -32.8,33.344 -11.348,5.802 -24.373,7.43 -36.8,4.6 -2.296,-1.144 -5.176,-1.72 -7.472,-2.872 -8.411,-3.871 -14.711,-11.223 -17.248,-20.128 -1.325,-5.942 -0.443,-12.163 2.48,-17.504 l 0.064,-0.096 c -5.317,-2.857 -11.484,-3.709 -17.376,-2.4 -8.893,2.545 -16.232,8.844 -20.096,17.248 -1.152,2.296 -1.72,5.176 -2.872,7.472 -2.83,12.427 -1.202,25.452 4.6,36.8 7.415,14.148 19.076,25.619 33.344,32.8 36.224,18.976 78.776,11.504 111.544,-12.648 43.036,-32.254 65.254,-85.268 58.072,-138.568 C 402.166,133.129 379.368,89.351 343.361,58.069 313.964,32.428 278.22,15.152 239.865,8.045 Z"
           style="fill:#adf0ff"
           inkscape:connector-curvature="0" />
        <path
           id="path832"
           d="m 239.825,402.701 c -2.336,-0.635 -4.661,-1.325 -6.976,-2.072 -28.799,-8.975 -53.98,-26.913 -71.872,-51.2 -24.152,-32.8 -31.624,-75.32 -12.648,-111.544 7.183,-14.269 18.653,-25.931 32.8,-33.352 11.348,-5.802 24.373,-7.43 36.8,-4.6 2.296,1.152 5.176,1.728 7.472,2.88 13.675,5.72 20.678,20.972 16.104,35.072 -0.567,0.638 -1.084,1.321 -1.544,2.04 l 0.064,-0.096 c 0.767,0.47 1.493,1.005 2.168,1.6 14.1,4.574 29.352,-2.429 35.072,-16.104 1.152,-2.296 1.728,-5.176 2.88,-7.472 2.83,-12.427 1.202,-25.452 -4.6,-36.8 -7.421,-14.147 -19.083,-25.617 -33.352,-32.8 -36.224,-18.976 -78.768,-11.504 -111.544,12.648 -24.287,17.892 -42.225,43.073 -51.2,71.872 -5.655,17.832 -8.186,36.506 -7.48,55.2 2.118,51.615 25.414,100.076 64.4,133.968 29.317,25.777 65.092,43.097 103.496,50.104 z"
           style="fill:#adf0ff"
           inkscape:connector-curvature="0" />
      </g>
      <path
         style="fill:#00404f;fill-opacity:1;stroke:none;stroke-width:3.4519999;stroke-miterlimit:4;stroke-dasharray:none;stroke-opacity:1"
         id="path836"
         d="m 1734.0879,-1278.0218 c -15.0157,-2.6752 -29.3548,7.3249 -32.0335,22.3406 0,0 0,0 0,0 -23.0517,127.6369 -80.5221,246.5544 -166.2152,343.91825 -112.131,128.59308 -272.1017,205.56321 -442.5592,212.93989 -61.4022,2.58201 -122.77669,-5.70942 -181.29304,-24.49458 -93.94305,-29.00964 -176.07031,-87.45696 -234.25873,-166.71224 -82.12725,-111.48212 -98.03354,-247.84532 -41.42262,-355.93082 21.84698,-43.7699 56.79041,-79.6488 99.96659,-102.6452 32.62031,-17.1076 70.15266,-22.4062 106.23521,-14.995 4.30796,1.9054 8.94729,3.5071 13.61424,5.0536 31.49845,9.61 53.45589,38.1157 54.70547,71.0259 -16.33432,-2.689 -33.01037,-2.5405 -49.29291,0.4419 -38.54721,10.7526 -70.49095,37.7774 -87.48458,74.0084 -2.52333,5.3677 -4.67385,10.9045 -6.43431,16.5691 -0.93201,3.1688 -2.08494,6.2686 -3.45189,9.2786 -0.8319,1.6397 -1.48776,3.3622 -1.96067,5.1364 -11.58798,49.6071 -5.19854,101.7133 18.03265,147.0503 28.15357,53.85634 72.49649,97.52269 126.78083,124.84781 127.02936,66.4695 285.62276,48.8787 414.22626,-45.86865 156.3738,-117.26746 237.2894,-309.79286 211.6419,-503.56096 -18.3157,-170.7441 -100.4464,-328.2674 -229.9507,-441.0405 -105.2239,-91.613 -233.0817,-153.35 -370.26305,-178.78 -14.92595,-3.1378 -29.56884,6.417 -32.70661,21.343 -3.13776,14.9259 6.41706,29.5688 21.34301,32.7066 0.5523,0.1174 1.1115,0.214 1.67071,0.2969 127.44014,23.7282 246.20224,81.1503 343.94584,166.298 118.8829,103.56 194.2824,248.1871 211.1173,404.9475 23.421,174.158 -48.9892,347.3943 -189.3842,453.0806 -111.4545,82.1273 -247.8178,98.00597 -355.9032,41.42267 -43.78026,-21.84698 -79.66606,-56.78697 -102.67287,-99.96657 -17.07648,-32.6514 -22.37167,-70.1907 -14.99499,-106.2905 1.90544,-4.3079 3.53473,-8.9473 5.10879,-13.6142 0.92165,-3.1654 2.07458,-6.2583 3.45188,-9.2511 9.41675,-21.1566 27.31132,-37.3666 49.29292,-44.6535 6.38944,-1.0114 12.86518,-1.3912 19.33056,-1.1323 -2.80983,16.4621 -2.67866,33.29 0.38661,49.7072 10.76988,38.5299 37.79124,70.4599 74.00842,87.4569 5.35732,2.5372 10.8976,4.6773 16.56905,6.4067 3.16538,0.9528 6.26517,2.116 9.27866,3.4795 1.63965,0.8389 3.35869,1.5051 5.13641,1.9883 49.60016,11.5915 101.70286,5.1917 147.02266,-18.0602 53.8771,-28.1398 97.5503,-72.4965 124.8478,-126.8085 66.4695,-126.836 48.9063,-285.5675 -45.8134,-414.2262 -117.3123,-156.3877 -309.8999,-237.2791 -503.69908,-211.5591 -170.66465,18.3295 -328.10859,100.4395 -440.81954,229.8955 -91.63029,105.2169 -153.37761,233.0782 -178.80765,370.263 -2.937551,14.9639 6.81057,29.4791 21.77795,32.4201 14.96392,2.9376 29.4791,-6.8105 32.4201,-21.7779 0.0552,-0.2796 0.10356,-0.5592 0.15188,-0.8388 23.7041,-127.4609 81.1055,-246.2506 166.24279,-344.0287 103.58762,-118.8484 248.21815,-194.2169 404.97516,-211.0344 174.16832,-23.4314 347.41839,48.9822 453.10829,189.3842 82.1548,111.4821 98.0059,247.8453 41.4226,355.9308 -21.847,43.7699 -56.7904,79.6487 -99.9666,102.6452 -32.6307,17.0799 -70.1527,22.3751 -106.2352,14.995 -4.308,-1.9054 -8.9749,-3.5623 -13.8076,-5.1088 -3.14464,-0.9147 -6.22027,-2.0573 -9.19579,-3.4243 -21.14625,-9.4374 -37.35976,-27.3216 -44.6812,-49.2929 -1.04938,-6.5275 -1.42908,-13.1413 -1.13222,-19.7448 56.89401,9.0958 112.75581,-21.3637 135.92141,-74.1188 2.5613,-5.3574 4.7291,-10.8976 6.4896,-16.5691 0.9354,-3.1585 2.0884,-6.2514 3.4518,-9.251 0.8078,-1.6397 1.4636,-3.3484 1.9607,-5.1088 11.5638,-49.6071 5.1778,-101.7064 -18.0326,-147.0503 -28.1812,-53.846 -72.5276,-97.5089 -126.80848,-124.8478 -126.83607,-66.4419 -285.56755,-48.8787 -414.41952,46.0619 -88.2509,65.3753 -153.46046,157.0815 -186.23611,261.9015 -20.44206,64.5847 -29.61372,132.2072 -27.11801,199.9055 7.9497,185.79775 91.80289,360.18698 231.96668,482.40788 104.84411,92.25163 232.9056,154.0887 370.34585,178.83526 1.61203,0.29686 3.24823,0.44529 4.88787,0.44184 15.25043,-0.0483 27.57711,-12.45095 27.52879,-27.70138 -0.0414,-13.32082 -9.58589,-24.71549 -22.69615,-27.08694 C 805.08898,-500.78841 686.1888,-558.23468 588.83873,-643.89666 460.2215,-756.01389 383.23755,-915.99151 375.87123,-1086.4559 c -2.43358,-61.3953 5.8544,-122.7456 24.49458,-181.2931 29.00964,-93.943 87.45696,-176.0703 166.71224,-234.2587 111.48208,-82.1272 247.81774,-97.9783 355.93078,-41.4226 43.76645,21.8642 79.64877,56.8008 102.67287,99.9666 17.0661,32.6548 22.351,70.1941 14.9674,106.2904 -1.9055,4.2804 -3.5071,8.9197 -5.0536,13.559 -1.1149,3.6452 -2.4922,7.2076 -4.1146,10.6595 -11.6018,26.7555 -37.94316,44.0978 -67.10468,44.1841 8.91277,-56.8146 -21.58464,-112.5039 -74.25695,-135.5901 -5.36078,-2.544 -10.89761,-4.6945 -16.56905,-6.4343 -3.16538,-0.9527 -6.26517,-2.116 -9.27867,-3.4795 -1.62584,-0.8146 -3.32762,-1.4705 -5.08117,-1.9606 -49.60359,-11.5362 -101.68564,-5.1364 -147.02269,18.0602 -53.86322,28.1467 -97.53302,72.4931 -124.84778,126.7809 -66.4695,126.8636 -48.8787,285.59512 46.03433,414.39186 65.30967,88.24744 156.92961,153.50533 261.68051,186.37418 58.25056,18.50555 119.04175,27.75661 180.16075,27.42177 6.5724,0 13.1724,0 19.8001,-0.30376 185.8218,-7.95315 360.2352,-91.8305 482.463,-232.02191 92.2793,-104.84756 154.1578,-232.91594 178.9458,-370.37344 2.7235,-15.0054 -7.2317,-29.379 -22.2405,-32.1026 -0.028,-0.01 -0.052,-0.01 -0.076,-0.014 z"
         inkscape:connector-curvature="0" />
    </g>
    <g
       id="g838"
       transform="matrix(3.4518851,0,0,3.4518851,99.82398,-2080.0362)" />
    <g
       id="g840"
       transform="matrix(3.4518851,0,0,3.4518851,99.82398,-2080.0362)" />
    <g
       id="g842"
       transform="matrix(3.4518851,0,0,3.4518851,99.82398,-2080.0362)" />
    <g
       id="g844"
       transform="matrix(3.4518851,0,0,3.4518851,99.82398,-2080.0362)" />
    <g
       id="g846"
       transform="matrix(3.4518851,0,0,3.4518851,99.82398,-2080.0362)" />
    <g
       id="g848"
       transform="matrix(3.4518851,0,0,3.4518851,99.82398,-2080.0362)" />
    <g
       id="g850"
       transform="matrix(3.4518851,0,0,3.4518851,99.82398,-2080.0362)" />
    <g
       id="g852"
       transform="matrix(3.4518851,0,0,3.4518851,99.82398,-2080.0362)" />
    <g
       id="g854"
       transform="matrix(3.4518851,0,0,3.4518851,99.82398,-2080.0362)" />
    <g
       id="g856"
       transform="matrix(3.4518851,0,0,3.4518851,99.82398,-2080.0362)" />
    <g
       id="g858"
       transform="matrix(3.4518851,0,0,3.4518851,99.82398,-2080.0362)" />
    <g
       id="g860"
       transform="matrix(3.4518851,0,0,3.4518851,99.82398,-2080.0362)" />
    <g
       id="g862"
       transform="matrix(3.4518851,0,0,3.4518851,99.82398,-2080.0362)" />
    <g
       id="g864"
       transform="matrix(3.4518851,0,0,3.4518851,99.82398,-2080.0362)" />
    <g
       id="g866"
       transform="matrix(3.4518851,0,0,3.4518851,99.82398,-2080.0362)" />
  </g>
</svg>
